/* XPM */
static char *result[] = {
/* columns rows colors chars-per-pixel */
"48 48 183 2 ",
"   c #081708",
".  c #0A1D0F",
"X  c #15170C",
"o  c #121C0C",
"O  c #18190D",
"+  c #1C0C16",
"@  c #0C1816",
"#  c #161715",
"$  c #181617",
"%  c #171915",
"&  c #1B131C",
"*  c #18191B",
"=  c #2A0E06",
"-  c #2A140D",
";  c #2B1E08",
":  c #371601",
">  c #3E1B0A",
",  c #241712",
"<  c #2B1019",
"1  c #341B13",
"2  c #1C2418",
"3  c #0B1B25",
"4  c #1D1620",
"5  c #101827",
"6  c #1E172A",
"7  c #2D0A20",
"8  c #460D06",
"9  c #49160D",
"0  c #53120E",
"q  c #54180F",
"w  c #671E05",
"e  c #6F1A10",
"r  c #601F18",
"t  c #7C483A",
"y  c #8C180A",
"u  c #9C160E",
"i  c #881910",
"p  c #8A1C1F",
"a  c #B71905",
"s  c #BD1F05",
"d  c #B11708",
"f  c #BC1B0C",
"g  c #B41E13",
"h  c #BC1F15",
"j  c #972211",
"k  c #A8200E",
"l  c #B9270C",
"z  c #AC2015",
"x  c #C31C09",
"c  c #C81909",
"v  c #DF1A01",
"b  c #DD1D0E",
"n  c #CD1511",
"m  c #C11D11",
"M  c #DC1E18",
"N  c #EB1D05",
"B  c #EC1C0C",
"V  c #FC1604",
"C  c #F41D05",
"Z  c #FD1A04",
"A  c #F51109",
"S  c #F41D0B",
"D  c #FC1F0D",
"F  c #ED1E11",
"G  c #F61617",
"H  c #F21B16",
"J  c #FD1E18",
"K  c #CD2A09",
"L  c #D62601",
"P  c #DA230B",
"I  c #C72010",
"U  c #D72214",
"Y  c #ED2405",
"T  c #EB220A",
"R  c #E62808",
"E  c #E72A09",
"W  c #EE2A0B",
"Q  c #F12004",
"!  c #FA2604",
"~  c #F3220B",
"^  c #FC230B",
"/  c #ED2516",
"(  c #F52010",
")  c #F12A19",
"_  c #F3331F",
"`  c #F12E20",
"'  c #FC222F",
"]  c #E03623",
"[  c #E33829",
"{  c #ED3C2F",
"}  c #F53327",
"|  c #FA3425",
" . c #F8382D",
".. c #EE393D",
"X. c #F73838",
"o. c #F5422D",
"O. c #E84739",
"+. c #F34A37",
"@. c #ED4B49",
"#. c #F14640",
"$. c #F84447",
"%. c #F44E47",
"&. c #F74A4C",
"*. c #EE5341",
"=. c #F5584B",
"-. c #F45B59",
";. c #EB6858",
":. c #F56453",
">. c #F56957",
",. c #F1675C",
"<. c #E86A62",
"1. c #FB6861",
"2. c #E97A67",
"3. c #F97A60",
"4. c #F27769",
"5. c #F9786A",
"6. c #FC7577",
"7. c #F98A7C",
"8. c #EB917D",
"9. c #EF7D80",
"0. c #8D8B84",
"q. c #908F8E",
"w. c #869085",
"e. c #8F908E",
"r. c #FA8987",
"t. c #E99485",
"y. c #F29787",
"u. c #FE9692",
"i. c #EFAF9E",
"p. c #FAA295",
"a. c #FDAA97",
"s. c #F5A898",
"d. c #FFAA9F",
"f. c #F6ACA0",
"g. c #F3AAA9",
"h. c #FDAAAB",
"j. c #E6BFA9",
"k. c #F7B4AE",
"l. c #FABBAF",
"z. c #FDB6B1",
"x. c #FABCB4",
"c. c #EBC0A4",
"v. c #F3C1AC",
"b. c #F6C5B0",
"n. c #FABAC4",
"m. c #FBCDC3",
"M. c #FEC7C9",
"N. c #FCC9CA",
"B. c #FBD5C7",
"V. c #FAD9C9",
"C. c #F6D8D7",
"Z. c #FCDBD3",
"A. c #F5D9DB",
"S. c #FBDCDD",
"D. c #EFE3DD",
"F. c #FAE5D6",
"G. c #F3E2DB",
"H. c #FBECDF",
"J. c #FFD2E0",
"K. c #FCDDE0",
"L. c #FCE5E3",
"P. c #F1EFE4",
"I. c #FDECE3",
"U. c #FFE3EC",
"Y. c #FEEDEC",
"T. c #E7F6EC",
"R. c #EEF9EF",
"E. c #FFF8E6",
"W. c #F4F3EB",
"Q. c #F9F7EB",
"!. c #FDEDF3",
"~. c #FFEDFE",
"^. c #E7FBF4",
"/. c #EEFDF7",
"(. c #E7FFFD",
"). c #EEFEFD",
"_. c #F6F3F3",
"`. c #FEF4F5",
"'. c #F4FDF4",
"]. c #FCFDF5",
"[. c #FEF6FD",
"{. c #F5FDFD",
"}. c #FFFFFF",
/* pixels */
"}.}.}.}.}.}.}.}.}.}.}.}.}.}.}.}.}.}.}.}.}.}.}.}.}.}.}.}.}.}.}.}.}.}.}.}.}.}.}.}.}.}.}.}.}.}.}.}.",
"}.}.}.}.}.}.}.}.}.}.}.}.}.}.}.}.}.}.}.P.].].E.[.}.}.Q . ].}.}.}.}.}.}.}.}.}.}.}.}.}.}.}.}.}.}.}.",
"}.}.}.}.}.}.}.}.}.}.}.}.}.}.}.}.}.'.}.}.}.}.}.}.}.}.}.[.}.}.].# }.}.}.}.}.}.}.}.}.}.}.}.}.}.}.}.",
"}.}.}.}.}.}.}.}.}.}.}.}.}.[.$.}.}.}.}.`.[.K...v.J T.].A.].}.}.}.}.}.(.}.}.}.}.}.}.}.}.}.}.}.}.}.",
"}.}.}.}.}.}.}.}.}.}.}.}.V }.}.}.}.n.}.}.}.}.}.[.}.}.}.}.}.}.'.{.}.}.}.`.}.}.}.}.}.}.}.}.}.}.}.}.",
"}.}.}.}.}.}.}.}.}.}.}.}.}.}.G ].}.}.}.}.}.}.f }.}.g.}.}.}.}.}.}.].8.}.}.}.U }.}.}.}.}.}.}.}.}.}.",
"}.}.}.}.}.}.}.}.}.}.}.}.}.{.}.}.}.}.}.}.}.Y }.}.}.}.@ }.}.}.}.}.}.}.}.C.}.}./ }.}.}.}.}.}.}.}.}.",
"}.}.}.}.}.}.}.}.}.}.}.= }.[.}.}.}.}.}.}.* }.}.`.7.}.}.o }.}.].}.}.}.}.}.b }.}.D.}.}.}.}.}.}.}.}.",
"}.}.}.}.}.}.}.<.}.}.C }.3.}.}.}.}.}.}.}.}.}.}.[.' }.}.}.}.}.}.}.}.}.}.'.].I.}.}.L.}.}.}.}.}.}.}.",
"}.}.}.}.}.}.d }.}.u.}.}.}.}.}.}.}.}.}.T }.}.}.I.}.}.}.}.G.}.}.}.}.}.}./.}.}.{.}.}.W }.}.}.}.}.}.",
"}.}.}.}.}.@.].].O.}.}.}.}.~ }.}.}.}.N }.}.}.}.}.}.} }.}.}.5 }.}.}.}.3 }.}.}.}.{.}.}.>.}.}.}.}.}.",
"}.}.}.}.}.}.}.7.}.}.}.}.}.}.,.}.}.[.}.}.}.}.{.}.}.{.}.}.}.}.m.}.}.{.}.}.}.}.}.}.[.}.}.}.}.}.}.}.",
"}.}.}.}.}.}.[.}.}.}.}.}.}.}.[.}.}.}.}.}.}.B.}.}.}.}.Z.}.}.}.}.}.}.[.}.}.}.}.}.}.}.}.}.{.}.}.}.}.",
"}.}.}.}.}.}.}.}.}.}.}.}.}.}.}.N B }.}.}.}.[.}.}.}.}.}.}.}.}.}.`.4 }.}.}.}.}.}.}.}.}.}.}.;.}.}.}.",
"}.}.}.2.}.Z }.}.}.}.# p v g.{.h C j N r.h.].W k I +.].!.+.l h %.< {.O.m g < }.}.}.}.b.}.}.}.}.}.",
"}.}.}.}.}.}.}.}.}.}.{.}.}.}.{.}.}.}.}.[.}.}.}.] Z.}.}.}.}.}.}.}.}.4.}.}.}.c.}.}.}.}.}.}.}.}.}.}.",
"}.}., }.L.}.}.}.}.}.}.M }.}.}.}.}.~ }.Q.}.}.}.}.}.D }.}.l.}.# }.}.}.}.}.[.}.}.}.}.}.}.C }.}.}.}.",
"}.}.}.}.` }.}.}.}.}.}.).}.+.}.}.}.}.:.}.}.}.].}.}.[.}.}.}.[.}.}.}.}.~.}.W.}.}.}.}.}.}.{.}.}.}.}.",
"}.}.}.}.$ $ 0.& 0.w.$ $ # $ $ $ $ # . $ $ , $ $ + # * # $ & $ $ $ $ $ $ # $ $ O e.q.w.$ }.}.[.}.",
"}.F.}.].}.}.}.}.}.}.}.~.].}.}.}.}.}.}.( ].}.}.2 B }.}.}.o }.}.}.}.}.}.}.) }.}.}.}.}.}.}.l.}.X.}.",
"}.  }._ }.].}.}.}.}.}.}.}.s.}.}.}.# }.}.| }.}.}.}.}.}.].}.}.6 }.}.}.*.}.}.}.}.}.}.}.| }.S [.}.}.",
"}.:.}.w }.}.9 }.}.}.u.}.}.}.}.}.}.W }.9.].{.q }.}.*.}.[.[.}.m }.}.}.}.}.}.{.}.}.}.y }.}.C.}.].}.",
"}.}.}.J }.}.}.*.}.& }.}.}.}.).}.B }.].{.}.C }.}.}.}.. }.}.}.}.P }.[ }.}.}.}.s }.`.}.}.}.}.}.}.}.",
"}.{.}.Z.}.}.}.}.[ }.}.}.}.}.}.}.[.}.#.].}.C 5.}.}.'.`.}.}.; }.}.}.}.}.}.}.}.}.Z ].}.}.}.}.}.}.}.",
"}.{.}.{.}.}.}.}.m.}.}.}.}.}.}.: }.[.}.{.{.}.}.}.}.}.}.k.Y.}./.}.} }.}.}.}.}.}.<.}.}.}.}.}.}.}.}.",
"}.J.}.f.}.}.}.S.}.u }.}.}.}.'.}.{.}.}.[.p.}.}.Z @ }.}.F ( }.}.}.}.[.}.}.}.}.> }.[.}.}.}.}.}.}.}.",
"}.}.}.v }.}.@ }.}.}.D }.}.}.K }.r E b Y y.g E./ L / < {.S | P % }._.}.}.}.).}.}.}.R }.}.'.}.[.}.",
"}.,.}.X.}.V.}.}.}.}.}.}.}.}.}.}.}.}.}.{.}.}.9 }.}.S }.t.].}.}.}.}.}.[.}.].}.}.}.}.}.U }.{.}.}.}.",
"}.[.}.{.}.].}.}.}.}.}.].}.{ }.}.}.1.z.}.}.'.}.;.{.}.}.}.}.t i.}.}.}.~.}.x.}.}.}.}.}.}.{.`.}.N }.",
"}.}.}.}.h x x x x x x x $ x x f x x c x x f x h c x a x x x x x x f x $ x x x x f x x f }.}.}.}.",
"}.}.'.}.C }.}.}.}.}.}.}.R.T }.}.}.P Y.}.}.}.U.}.}.}.}.}.}.E 4 }.}.}.`.}.}.}.}.}.}.}.}.}.}.].}.}.",
"}.}.[.}.}.}.}.}.}.}.}.}.}.}.}.}.}.}.}.H.}.}.`.}.}.].}.}.].}.}.}.}.}.}.}.{.}.}.}.}.}.}.{.}.}.}.}.",
"}.}.}.}.}.].}.}.}.}.}.}.}.}.}.}.- }.}.}.}.}.}.r.}.}.}.}.+.}.}.M }.!.}.}.[.}.}.}.}.}.}.}.}.}.}.}.",
"}.}.}.y.}.A.}.}.}.}.7 }.}.}.[.9 [.}.}.}.8.}.}.].Z }.}.}.}.}.}.}.# }.}.}.}.$ }.}.}.}.m.}.}.}.}.}.",
"}.}.}._.}.}.].}.}.}.}.}.}.}.}.0 l ].}.}.].}.}.}.}.}.}.D.}.}.}.k.:.}.}.}.}.}.}.}.}.}.}.}._.}.}.}.",
"}.}.}.}.^ }.}.}.}.}.}.}.}.}.].}.}.[.}.}.}.`.}.}.}.}.^.}.}.}.}.}.}.).}.}.}.}.}.}.}./.}.=.}.}.}.}.",
"}.}.}.}.}.[.}.{.}.}.}.}.}.}.T }.}.{.}.}.}.}.}.}.}.}.~.}.}.}./.}.}.'.}.}.}.}.}.}.C }.}.}.}.}.}.}.",
"}.}.}.}.}.}.}.}.`.}.}.}.}.].}.}.}.}.o.}.}.}.{.}.}.S.}.}.}.1 }.}.}.}.M.}.}.}.}.=.}.}.}.}.}.}.}.}.",
"}.}.}.}.}.}.}.}.}.N.}.}.}.d.}.}.}.}.}.e }.}.}.}.}.}.}.}.:.}.}.}.}.}.{.}.}.}.I.}.}.W.}.}.}.}.}.}.",
"}.}.}.}.}.}.}.}.}.}.&.}.'.}.}.}.}.}.}.}.[.}.}.a.R.}.}.}.}.}.}.}.}.}.}.Z }.W.}.}._ }.}.}.}.}.}.}.",
"}.}.}.}.}.}.}.}.{.}.}.F }.}.}.}.}.}.}.}.8 [.}.[.Q.}.}.$ }.}.}.}.}.}.}.}.).}.}.F }.}.}.}.}.}.}.}.",
"}.}.}.}.}.}.}.}.}.'.}.}.}.[.}.}.}.}.}.}.}.6.}.}.}.}.i }.}.}.}.}.}.}.[.}.}.}.X }.}.}.}.}.}.}.}.}.",
"}.}.}.}.}.}.}.}.}.}.}.}.}.}.[.].}.}.}.}.}.}.- }.}.W }.}.}.}.}.}.}.V.}.}.}.m.}.}.}.}.}.}.}.}.}.}.",
"}.}.}.}.}.}.}.}.}.}.}.}.{.}.}.}.}.:.}.}.}.}.}.].}.}.}.}.}.`.z }.}.}.}.{.}.}.}.}.}.}.}.}.}.}.}.}.",
"}.}.}.}.}.}.}.}.}.}.}.}.}.}.o }.}.}.}.}.{.B j.}.! H n ).}.}.}.}.}.-.}.}.}.}.}.}.}.}.}.}.}.}.}.}.",
"}.}.}.}.}.}.}.}.}.}.}.}.}.}.}.}.}.}.}.}.}.}.}.}.}.}.}.}.}.}.{.T }.}.}.}.}.}.}.}.}.}.}.}.}.}.}.}.",
"}.}.}.}.}.}.}.}.}.}.}.}.}.}.}.}.}.}.}.}.7.[.A N -.}.R  .}.}.}.}.}.}.}.}.}.}.}.}.}.}.}.}.}.}.}.}.",
"}.}.}.}.}.}.}.}.}.}.}.}.}.}.}.}.}.}.}.}.}.}.}.}.}.}.}.}.}.}.}.}.}.}.}.}.}.}.}.}.}.}.}.}.}.}.}.}."
};
