/* XPM */
static char *result[] = {
/* columns rows colors chars-per-pixel */
"48 48 217 2 ",
"   c #010501",
".  c #040C01",
"X  c #061301",
"o  c #071901",
"O  c #091D02",
"+  c #072103",
"@  c #0B2404",
"#  c #072D07",
"$  c #0D2B05",
"%  c #0D2409",
"&  c #0E2D09",
"*  c #112C05",
"=  c #112C09",
"-  c #0E3306",
";  c #073B01",
":  c #0E3A06",
">  c #0E3409",
",  c #0F3A09",
"<  c #113306",
"1  c #123A06",
"2  c #123409",
"3  c #193708",
"4  c #123B09",
"5  c #193E0B",
"6  c #143510",
"7  c #143F10",
"8  c #0B4E06",
"9  c #0E4108",
"0  c #0E4808",
"q  c #144305",
"w  c #184506",
"e  c #134A05",
"r  c #1A4905",
"t  c #14430B",
"y  c #19440C",
"u  c #164A0C",
"i  c #1A4C0E",
"p  c #0F5406",
"a  c #115107",
"s  c #195207",
"d  c #15540C",
"f  c #1A520E",
"g  c #155A0B",
"h  c #1C5B0C",
"j  c #154710",
"k  c #1C4211",
"l  c #1B4C11",
"z  c #1D5411",
"x  c #175D10",
"c  c #1E5B12",
"v  c #215514",
"b  c #235C15",
"n  c #235C1B",
"m  c #2C5D1C",
"M  c #156508",
"N  c #17670F",
"B  c #1C640D",
"V  c #1A6A0A",
"C  c #1A7109",
"Z  c #1C7A0A",
"A  c #1D6313",
"S  c #1A6617",
"D  c #1C6C14",
"F  c #1C7112",
"G  c #22670B",
"H  c #22740C",
"J  c #227B0C",
"K  c #236415",
"L  c #246C15",
"P  c #296A17",
"I  c #25641A",
"U  c #2A631C",
"Y  c #246B19",
"T  c #2A6D1B",
"R  c #326E1F",
"E  c #247513",
"W  c #25711A",
"Q  c #2B721C",
"!  c #2B7C1A",
"~  c #33741E",
"^  c #317C1C",
"/  c #1C6121",
"(  c #2D6722",
")  c #306222",
"_  c #2C7322",
"`  c #277E20",
"'  c #327824",
"]  c #1E820E",
"[  c #1F8811",
"{  c #26850D",
"}  c #238C0C",
"|  c #2E8E0E",
" . c #2B9C0C",
".. c #268113",
"X. c #258614",
"o. c #2C8516",
"O. c #2A8B12",
"+. c #2D841B",
"@. c #2D8E1C",
"#. c #378F16",
"$. c #328218",
"%. c #338B1E",
"&. c #2B9414",
"*. c #2C9E14",
"=. c #2E991D",
"-. c #34931D",
";. c #329E18",
":. c #3B9E1C",
">. c #28A40C",
",. c #27A809",
"<. c #32B40C",
"1. c #2EAA13",
"2. c #2FA81E",
"3. c #33A512",
"4. c #33AD15",
"5. c #3BA21C",
"6. c #38A81B",
"7. c #2CB411",
"8. c #39B914",
"9. c #3DBC1B",
"0. c #2C8124",
"q. c #358C24",
"w. c #3A8A24",
"e. c #348428",
"r. c #3C9227",
"t. c #369821",
"y. c #399C23",
"u. c #35A321",
"i. c #3AA323",
"p. c #39A929",
"a. c #3EB326",
"s. c #3EB926",
"d. c #46AE1B",
"f. c #45B31B",
"g. c #52BF1B",
"h. c #43A126",
"j. c #40AD24",
"k. c #43B427",
"l. c #43B229",
"z. c #45BB29",
"x. c #35C30C",
"c. c #3DD00E",
"v. c #3DDD0E",
"b. c #37C711",
"n. c #3AC411",
"m. c #3ECC16",
"M. c #3AC71A",
"N. c #37D510",
"B. c #3DDA19",
"V. c #3CE30B",
"C. c #3EF80C",
"Z. c #3FE313",
"A. c #3FE911",
"S. c #3DC027",
"D. c #45C30E",
"F. c #42D20F",
"G. c #48DB0B",
"H. c #44C51F",
"J. c #42CA1C",
"K. c #50C818",
"L. c #44DE13",
"P. c #4ADA13",
"I. c #44D51B",
"U. c #49D21B",
"Y. c #43DC1B",
"T. c #59DB1A",
"R. c #45E40D",
"E. c #4AFD07",
"W. c #44F40E",
"Q. c #4BF40B",
"!. c #45FB0A",
"~. c #4AFA0C",
"^. c #53FE06",
"/. c #5CFE05",
"(. c #52F60E",
"). c #5CF70A",
"_. c #54FB0C",
"`. c #5BFD0A",
"'. c #43E614",
"]. c #46E716",
"[. c #49E114",
"{. c #48EF16",
"}. c #54EA18",
"|. c #47F417",
" X c #48F115",
".X c #4CFB13",
"XX c #53F411",
"oX c #5CF315",
"OX c #51F912",
"+X c #5EFD11",
"@X c #55F21C",
"#X c #5AF41C",
"$X c #59FA1D",
"%X c #63FD05",
"&X c #6DFE06",
"*X c #64FD0A",
"=X c #6BFE0A",
"-X c #70FF07",
";X c #71FB0C",
":X c #6DFE11",
">X c #43C125",
",X c #44C52E",
"<X c #4CC32A",
"1X c #52C62D",
"2X c #47D523",
"3X c #4CD425",
"4X c #4EDE26",
"5X c #58D627",
"6X c #52DC24",
"7X c #55D42A",
"8X c #5CDF29",
"9X c #4BE128",
"0X c #5AEA28",
"qX c #50FB23",
"wX c #5FEC33",
"eX c #65E727",
"rX c #63FA27",
/* pixels */
"    @ /.A.O o O O $ + X O E.o + : @ @ @ o $ @ $ + *.+ # @ B.# $ # @ $ # $ @ @ % @ @ $ O 0 $ $ $ ",
"  X O @ @ @ @ X X @ v.X o $ + O - ; @ + O $ $ @ $ @ O 7 $ : - $ W.$ - $ $ !.$ @ @ !.@ @ @ @  .E.",
"X - @ o . ,.E.O . O V.@ + O v.+ @ - @ + @ @ - $ ].@ @ @ $ : $ $ - $ $ ~.$ Y.$ V.$ & @ M.@ $ - + ",
"O q ^.O   o $ @ O o O _.7.O + $ @ D - @ ~.$ W.+ - % & $ $ = & & ~.$ - 4 - - $ $ $ >.@ % + C.$ o ",
"o (.e $ X X o + E.$ X $ M + O $ $ # - $ x.$ - $ 0 $ Z $ - I.- - W.$ - > > # & $ $ $ @ O % # $ @ ",
"X - %X$ @ @ X o 1 ^.O @ $ ^.+ @ !.$ - - $ @ @ # # - ~.- - 2 > $ > - > q !.$ !.- - $ # O @ @ $ # ",
". o @ @ ^./.O X $ < !.O + - $ @ - M $ > $ $ $ : > 1 $ > 1 2 - > - - : 2 '.> $ 2 $ & $ % V # t $ ",
"O X . X ^.q $ o O O a @ o $ $ + $ !.$ - $ d $ !.> > > > : 3.< - > [ g , - ~.> : - & $ !.$ $ !.@ ",
"1 @   . @ `.$ @ O X + @ @ O @ $ $ $ $ $ $ $  .> - J.- , 1 qX2 1 1 , t > - 5 > > - $ !.$ - - # - ",
"q p X X X o O u @ o o @ ^.@ @ $ ; $ - $ & - - - - !., , |.B.2 4 4 , F _.- : 1.> h - < - - $ $ - ",
"$ $ @ O O X . @ @ _.@ O @ $ @ $ - $ & > $ !.: > : 1 , 4 W x.4 4 , 4 9 |., 2 ~.9 - q - > # $ - $ ",
"X o o /.* o X o O 2 Q.@ @ ^.$ @ $ $ & 2 -  X,  X, , 4 M.: OXt t 4 y t 5 1 , , : : : : - $ - $ + ",
"    . @ $ @ @ @ o $ - x.$ $ $ $ $ , $ $ 2 , 1 1 , : y h u.y [.t 0 j y t 4 O.1 1 1 , 1 > !.- $ + ",
"X .   X O @ 1 `.@ @ @ } - $ @ @ $ @ ~.$ : 1 4 9 , {. .Y.i 3.d |.D F t t j 4 I.1 , 1 > - : - V.@ ",
"$ O . o X X _.Z.- * @ * - /.@ @ & & # 2 > g t 9 u t t y i u u l d g i c d y 4 4 t , - > - 2.$ $ ",
"- Q.@ $ @ X @ @ R.1 $ $ @ $ % * $ - - > - , t I.9 u u u i s f ..Z f i j j j ~.4 .X: |.> - - $ $ ",
"O O $ q ^.O o X @ u _.1 @ @ $ 2 - 2 N > 1 4 t t u u O.i i z &.v z z d i u u M w t { , , N - !.- ",
"X . + %X%X$ @ o o O * * % @ $ H , - 2 (.2 g t t } f B 2Xf z z c c &.z u l l i t q , m.- > ,.t $ ",
"o   X @ @ @ C @ @ O O @ $ XX- $ - 2 - - , t t O.f f i L h c K c G z z f l l y t t 4 4 , 7., > - ",
"1 O X X X X O @ ].@ @ O @ < 2 & $ > 1 1 , 4 e u f f z z F c c E A z 4X.Xf z f u t 4 g 4 , > A.> ",
"q @ % O X X X X O @ *X@ $ $ * * @ 2 , 5 , y t z M.*.H.z C K K 2XY c z g z z l i u y 4 t : M.- $ ",
"~.* %XV O $ $ o o O @ * *X/.$ @ @ +X> 4 y y *.i z c c 2.A K K K A I x v z f x i v.t 4 8 : : : % ",
"* X @ * @ *X1 $ $ @ @ @ * XX`.% @ * &.5 4 y l ,XD =.#Xb K $.y.p.5.A $XXX9XA f N i j t 1 : g - @ ",
". . X o o = %X* 2 <  X@ @ * * % m.2 2 +X}.t h l z b K A K ;.Y E Y K @.S.A z z z l u h ~.- - - @ ",
"X . X o X o @ @ XX* 3 %X$ $ @ @ * D 2 4 t }.i J.A A W %.P <X>XW L L F D K c z f u u t 2 2 ~.b.$ ",
"@ X @ * o o X X O @ * @ @ - 4.*X$ < < 8.U.5 5Xv 2Xo.Y P T Q q.Q ! T t.X.Y c z @Xi t 5 : b.2 - $ ",
"(.@ %Xq * _.@ O O O @ @ @ * * *X2 - 1 1 5 j i E n K Y u.T ! Q Q %._ z.Y n c z v } y t , - : [ ; ",
"O o $  X* *XA.@ ~.* *X= * @ @ * $ 2 3 H 5 y i v I I l.Q ( S.<X5.W E T I A q.z i y t 4 J 2 - N.- ",
". . o * O O O O @ * ;.*X* %X< * $ < 1 4 4 -.6Xv I I z.( t.( ~ ~ u.Q W Y y.3Xz f u t t , - , $ $ ",
"X . X O X . . X O O @ @ @ @ $ % % 2 3 P.y y z v a.U Q P L ) z.( q._ P T %.c ! l u t t - - A.&.$ ",
"< O o * @ o X o @ @ * @ @ O @ % $ < < 4 5 y i eXn U T T U h.T ~ q._ i.0XI 4Xc f >.Z t 2 2 > > # ",
"r * * q *X@ $ @ 1 < 4 = @ @ *X*X- %X2 =X7 y z b b I eXU b U ) U l.q.T Y K K h z l y t : 1 ~.> > ",
"r * * h %X@ * @ %X= &X* @ @ < * * 1 1 9 y j z b b U Q R ' I w.y.) T P e.A n W f d j .X4 1 1 > > ",
"= O X * @ X o o @ @ @ @ @ @ = * * 2 5 5 7Xl l wXK K P U U w.r.n W T _ 0.K $Xz @XL t t Z !.1 > > ",
"X . . O O X O O @ * @ * < < 2 h oXk 5 =Xt y f z d.K P 5Xq.^ ^ Y t.` D O.c A f s.i t 3., , > !.!.",
"X . X @ < @ } 5 < <.| n.1 2 2 5 = 2 1 5 y K.i v v h.I _ j.m U @.^ Y Y / A c K l .Xj 4 4 6 - - - ",
"* @ O &Xw * 1 3 < &X* * * * < * * 3 2 h 1 y l :.v b b :.R 1X9.U P Y %.S @.c z _.i 7 B., - 0 - $ ",
"-X-XO =XF.* * * @ @ @ O @ *  .{ j 2 < 2 5 y :Xi v v k.T.5.K 5X>X6XI 6X4.$XB f f u 0 t , 1 - - # ",
"1 O X O % O X @ o o O @ * 2 5 $ $ * > 6 5 y y | f z b b K K I h.K #.b z z z d f t y 4 , C.> $ $ ",
"O X . X X X X * * $ 7.^.@ } * $ = = :X*X1 4 y i P v v z ( 6.K I K K rXf z v l i t t q d - - - $ ",
". X X X o @ @ 3 =X).t @ @ @ @ { 3 D.* 2 ;X}.5 j i q.z v b b K w.z.b b z z i i (.t ] t : x.$ - $ ",
"X * * O * &X@ ;X..O o o @ $ * 2 = = $ :X2 2 *Xi f.i $.z v v b f.f.b z z i l t j 9 4 q : - '.$ $ ",
"* c.w * &X$ o O O X @ * oX< % * @ * < 2 4 3 h y =Xt i $.8Xb T z.8.z H.f 4.y t j 4 9 : : - - - - ",
"* r F.@ o o X X o O &XP.&X* @ @ * XX< 3 5 4 5 g t eXj l d.c r.g.W h z 0Xu t g 4 4 : : : b.$ $ - ",
"o w * X . X O O @ _.* =X@ O @ ;X< % = -X;X2 ;X5 q y 5.y y i +.i K.i l y t Z t t q , > > - $ $ - ",
". X X .   * -X* b.3 O O o @ * 2.@ @ -X3 = 2 2 1 4 y y k y i i }.l y y y t 4 4 , , > - - - $ $ $ ",
"  . X X X -Xr < O o o O @ F.L.* * * < = = 4 = 3 3 8.y O.t t i k.4 j y t 4 7 1 C , - - ~.> @ ,.: ",
"  X @ * @ * -X@ X o @ @ &X@ O % ;X< % * 2 * = 4 2 5.4 4 5 y y P.G.5 4 5 5 4 &., > - !.$ k $ $ , "
};
