/* XPM */
static char *result[] = {
/* columns rows colors chars-per-pixel */
"48 48 85 1 ",
"  c #EC1B22",
". c #ED1B22",
"X c #EC1B23",
"o c #EE1A23",
"O c #EE1B23",
"+ c #EA1C23",
"@ c #EB1D23",
"# c #EA1E23",
"$ c #EE1D21",
"% c #ED1C22",
"& c #ED1D22",
"* c #EE1C22",
"= c #EF1C23",
"- c #EC1E23",
"; c #EC1B24",
": c #ED1B24",
"> c #EE1A24",
", c #EF1A24",
"< c #EE1A25",
"1 c #ED1B26",
"2 c #EE1A26",
"3 c #EF1A26",
"4 c #E91C26",
"5 c #EF1C24",
"6 c #EE1D24",
"7 c #EE1C25",
"8 c #E61F28",
"9 c #F01B26",
"0 c #DF2427",
"q c #DA2C2D",
"w c #DB2A33",
"e c #DB2B34",
"r c #D3373F",
"t c #D8373A",
"y c #E12327",
"u c #E1232A",
"i c #E0252C",
"p c #D54342",
"a c #D8474D",
"s c #DB5F65",
"d c #E06F71",
"f c #E86E71",
"g c #E9848A",
"h c #F48E90",
"j c #F4A4A4",
"k c #F2B1B1",
"l c #F9CECB",
"z c #FCDDDF",
"x c #FFE2EB",
"c c #FEECED",
"v c #FFF0EF",
"b c #FFF3F2",
"n c #FFF6F1",
"m c #FFF2F5",
"M c #FFF5FA",
"N c #FFFAFB",
"B c #FBFDF8",
"V c #FFFCFB",
"C c #FEFFFB",
"Z c #FFFFFB",
"A c #FFFBFC",
"S c #F9FDFC",
"D c #FBFFFD",
"F c #FBFEFF",
"G c #FDFFFC",
"H c #FDFFFD",
"J c #FFFFFC",
"K c #FEFEFD",
"L c #FFFEFD",
"P c #FEFFFD",
"I c #FFFFFD",
"U c #FEFDFE",
"Y c #FFFDFE",
"T c #FFFDFF",
"R c #FDFEFE",
"E c #FDFFFE",
"W c #FDFFFF",
"Q c #FEFEFE",
"! c #FFFEFE",
"~ c #FEFFFE",
"^ c #FFFFFE",
"/ c #FEFEFF",
"( c #FFFEFF",
") c #FEFFFF",
"_ c white",
/* pixels */
"________________________________________________",
"________________________________________________",
"________________________________________________",
"________________________________________________",
"________________________________________________",
"________________________________________________",
"________________________________________________",
"_______________t_________________q______________",
"______________&oM_______________+ob_____________",
"_____________goooG_____________jooo/____________",
"____________VoooooH___________!oooooZ___________",
"___________Qoooooo>H_________Uooooooo~__________",
"__________^oooooooo*_________Xoooooooo__________",
"_________)oooooooooo<_______ooooooooooo_________",
"_________xooooooooooo._____5ooooooooooo~________",
"__________0oooooooooooi___$oooooooooooS_________",
"___________3ooooooooooov_4oooooooooood__________",
"____________6ooooooooooofoooooooooooO___________",
"____________(oooooooooooooooooooooo,L___________",
"_____________)5ooooooooooooooooooo%W____________",
"______________^<ooooooooooooooooo1______________",
"_______________YoooooooooooooooooI______________",
"________________nooooooooooooooo)_______________",
"_________________woooooooooooooT________________",
"__________________;oooooooooooh_________________",
"_________________poooooooooooooF________________",
"________________AoooooooooooooooK_______________",
"________________ooooooooooooooooX_______________",
"_______________oooooooooooooooooo9______________",
"_____________^Xooooooooooooooooooo#^____________",
"_____________Oooooooooooooooooooooo7____________",
"____________5ooooooooooorooooooooooo-___________",
"___________@oooooooooool_7oooooooooook__________",
"__________eooooooooooo8___Oooooooooooo~_________",
"_________mooooooooooo2_____:ooooooooooo)________",
"__________oooooooooo=_______>ooooooooo$_________",
"__________!ooooooooo________CoooooooooP_________",
"___________JoooooooE_________FoooooooI__________",
"____________NoooooD___________BooooXF___________",
"_____________aooo(_____________soooR____________",
"______________ oc_______________@oz_____________",
"_______________u_________________y______________",
"________________________________________________",
"________________________________________________",
"________________________________________________",
"________________________________________________",
"________________________________________________",
"________________________________________________"
};
