/* XPM */
static char *result[] = {
/* columns rows colors chars-per-pixel */
"48 48 14 1 ",
"  c #FF0707",
". c #FF0A0A",
"X c #FF1212",
"o c #FF1616",
"O c #FF2020",
"+ c #FF2727",
"@ c #FF3C3C",
"# c #FF6666",
"$ c #FFA8A8",
"% c #FFB4B4",
"& c #FFB5B5",
"* c #FFE1E1",
"= c #FFF1F1",
"- c None",
/* pixels */
"------------------------------------------------",
"------------------------------------------------",
"------------------------------------------------",
"------------------------------------------------",
"------------------------------------------------",
"------------------------------------------------",
"------------------------------------------------",
"------------------------------------------------",
"------------------------------------------------",
"--------------O  .=-----------.  O--------------",
"------------        @------@        ------------",
"----------@           ----           @----------",
"---------%             --             $---------",
"---------                              ---------",
"--------+                              +--------",
"--------                                --------",
"--------                                --------",
"--------                                --------",
"--------                                --------",
"--------                                --------",
"--------                                --------",
"--------                                --------",
"--------&                              &--------",
"---------                              ---------",
"---------o                            o---------",
"----------                            ----------",
"-----------                          -----------",
"------------                        ------------",
"-------------                      -------------",
"--------------                    --------------",
"---------------                  ---------------",
"----------------                ----------------",
"-----------------              -----------------",
"------------------            ------------------",
"-------------------X        X-------------------",
"--------------------#      #--------------------",
"---------------------*    *---------------------",
"-----------------------  -----------------------",
"------------------------------------------------",
"------------------------------------------------",
"------------------------------------------------",
"------------------------------------------------",
"------------------------------------------------",
"------------------------------------------------",
"------------------------------------------------",
"------------------------------------------------",
"------------------------------------------------",
"------------------------------------------------"
};
