/* XPM */
static char *result[] = {
/* columns rows colors chars-per-pixel */
"48 48 181 2 ",
"   c #010101",
".  c #0B0100",
"X  c #020A01",
"o  c #020109",
"O  c #140000",
"+  c #1B0100",
"@  c #1F0A04",
"#  c #170909",
"$  c #0D130D",
"%  c #181616",
"&  c #181D13",
"*  c #230101",
"=  c #2C0201",
"-  c #220804",
";  c #280A05",
":  c #23020A",
">  c #2A050B",
",  c #330201",
"<  c #3C0301",
"1  c #350A06",
"2  c #3A0907",
"3  c #360509",
"4  c #3C070E",
"5  c #350A08",
"6  c #3B0B0B",
"7  c #3A0B10",
"8  c #430401",
"9  c #4B0501",
"0  c #44050B",
"q  c #4F050C",
"w  c #440A0B",
"e  c #4A0A0A",
"r  c #540601",
"t  c #5C0700",
"y  c #530B02",
"u  c #5D0801",
"i  c #55060A",
"p  c #5A0709",
"a  c #520C0F",
"s  c #5F0B0E",
"d  c #4D0414",
"f  c #420B10",
"g  c #4F0F1B",
"h  c #530D11",
"j  c #5C0C13",
"k  c #540F18",
"l  c #5C0F1B",
"z  c #461017",
"x  c #620700",
"c  c #630801",
"v  c #6C0901",
"b  c #63070C",
"n  c #640A0A",
"m  c #6C0B0D",
"M  c #730B01",
"N  c #7C0D01",
"B  c #730B0D",
"V  c #7C0D0C",
"C  c #67120D",
"Z  c #6F120F",
"A  c #76100E",
"S  c #7E100F",
"D  c #630D13",
"F  c #6C0D14",
"G  c #6C0D18",
"H  c #720C12",
"J  c #7A0D12",
"K  c #710F1C",
"L  c #631216",
"P  c #6A1113",
"I  c #66131C",
"U  c #6A131A",
"Y  c #751212",
"T  c #7D1315",
"R  c #741519",
"E  c #7F1319",
"W  c #7C191D",
"Q  c #6D1121",
"!  c #840E01",
"~  c #8A0F02",
"^  c #800D09",
"/  c #890E08",
"(  c #900F07",
")  c #871000",
"_  c #8E1101",
"`  c #8C100D",
"'  c #931102",
"]  c #9C1203",
"[  c #94130C",
"{  c #9B130A",
"}  c #840E13",
"|  c #8A0F13",
" . c #800F19",
".. c #821315",
"X. c #8D1315",
"o. c #85151B",
"O. c #8C141A",
"+. c #86191A",
"@. c #8C191A",
"#. c #941213",
"$. c #9B1313",
"%. c #9B1A15",
"&. c #941319",
"*. c #9D151A",
"=. c #931A1E",
"-. c #9A191B",
";. c #A31402",
":. c #AB1603",
">. c #A51409",
",. c #AC150B",
"<. c #B21702",
"1. c #B21805",
"2. c #BC1903",
"3. c #B2170B",
"4. c #B6190C",
"5. c #BB190C",
"6. c #A41415",
"7. c #A91612",
"8. c #A11813",
"9. c #AC1B17",
"0. c #A3161B",
"q. c #AB1619",
"w. c #A2191C",
"e. c #AD1B1C",
"r. c #B41713",
"t. c #B81717",
"y. c #B41A16",
"u. c #BB1A14",
"i. c #B1161B",
"p. c #B21A1C",
"a. c #BB1C1C",
"s. c #BE201A",
"d. c #8F1626",
"f. c #861921",
"g. c #9C1B23",
"h. c #A81621",
"j. c #A41B21",
"k. c #AC1C22",
"l. c #B41B22",
"z. c #BE1C22",
"x. c #B41D28",
"c. c #BC1B2A",
"v. c #BD2027",
"b. c #B82029",
"n. c #C31B04",
"m. c #C81B07",
"M. c #C41B0D",
"N. c #CB1C0B",
"B. c #D11D04",
"V. c #DA1F03",
"C. c #C41B14",
"Z. c #CA1C14",
"A. c #C41C1B",
"S. c #CC1D1C",
"D. c #D31E15",
"F. c #DA1F15",
"G. c #D31E1C",
"H. c #DB1F1B",
"J. c #E01F16",
"K. c #E21F1E",
"L. c #CD201D",
"P. c #D32116",
"I. c #DB2012",
"U. c #D5201C",
"Y. c #DC201B",
"T. c #E2200C",
"R. c #E42115",
"E. c #EC2213",
"W. c #E3211B",
"Q. c #EF231E",
"!. c #C41C22",
"~. c #CB1D22",
"^. c #C61C28",
"/. c #D21E23",
"(. c #DB1F22",
"). c #D11F2A",
"_. c #DF1F28",
"`. c #C32021",
"'. c #CE2024",
"]. c #D12022",
"[. c #E42124",
/* pixels */
"                                            o o           X           X         .             . ",
"  . O O .     . O .       . . .       . O .     . . .         . .         . . .     . .         ",
". , n H 8   . 8 B m * . O 9 n r O   O u B q O   O r n O   . = p a .     , n w .   . < s 4 .     ",
"= [ /.~.l.; 8 6.S.!.d.: 9 r.D.A.F * c H.G.l.a . 8 !.~.6   O u a.j.#   O ) '.@.. o + $.~.U .     ",
"u A.C.1.].C ~ G.n.2.).b ( S.:.N.z.x ,.I.<.D.=.= < u.Y.6 . . r N.a.@   . N I.%.O   + ] Y.T .     ",
"N L.{ M E.$.<.L.~ ( H.{ n.C.M :./.' D.y.M m.k., * { I.6   . 8 5.u.-     c N.%.+ X . ) I...O     ",
"! L._ v E.,.2.L.N ~ W.:.B.C.v ;./.] D.9.x m.l., O >.F.6   . 8 4.p.;     x L.%.O o   ) G.T . .   ",
"M A.>.) R.{ ;.L.[ ] (./ 2.Z.~ 4.~.! C.t.N N.k., * :.I.w .   8 4.a.=     u C.-.O o . ) P.S .     ",
"r p.A.4.L.n M A.C.t.c.0 ! H.4.!.w.r 7.G.,.A.+.+ = 3.H.s . . 8 u.A.7   . v S.w.+ o O _ U.T O     ",
"= N ~.^.+.@ = { S.^.K . < 7.z.j.i + u y.A.w.8 . , q.!.U O . r t.k.z   O M ~.g.@ o O X.t.W +     ",
". * 0 9 *     * 9 w O   . , 9 , O   O 8 r = .   O 8 8 * .   + 8 8 O     = 9 < .   . < 9 , .   o ",
"                            .     o     . .     . .           . .       . . .               .   ",
"                                  o                             .                     X         ",
"  . O O . X   . O .       . O .   o . O * .       O + .     . O O .     O O O .   . O * O       ",
"O 8 J ..w     , m e     . 8 F 6   . * c X.i O . , J O.h O O 9 } J <   + r ..H , . , v ..P + X   ",
"< 6.(.S.k.1 O M '.j.@   O #.).+.O + H ).Y.b.h = | (./.!.w 8 7.].~.g.= r i.G.~.X.* M !.S.v.P     ",
"u S.M.;.Y.Y + c P.e.@   . ! H.o.O 8 A.H.;.D.8.M C.M.' W.R N A.,.;.U.M ;.L.1.M.A.v u.A.;.Z.w.-   ",
"_ Y.{ M R.-.* 9 5.9.*     M Z.+.* 9 H.y.c N.C.] S.[ c I.a.:.'.) M R._ 2.`.N >.].{ F.y.N 5.a.< X ",
"_ U.' v R.-.O 8 u.9.*     v D.+.O 9 F.r.x N.Z.;.P.[ c T.u.<.'.^ v R.] n.a.v { (.{ F.e.v 4.a.<   ",
"M G.3.~ W.... 8 C.p.*     M F.X.* 8 C.Z.! N.p.) Z.3.) F.[ ] ~.;.] Y.N <.A.' :.S.M M.a.~ C.k.,   ",
"9 y.S.t.~.q . t S.l.3 . . ! H.-.* * ] ].5.C.W 9 ,.S.y.A.t v ~.Z.C.!.8 ) A.M.S.0.8 [ !.u.!.o.O   ",
"+ v l.x.} O . r q.g.4   O V k.f.* . 8 7.p.X., + u q.l.Y O = V z.l.P . < $.A.e.p O 8 $.e.=.< .   ",
". O , , +     * < , O   . * < , .   . = 8 *     . , < O     + 8 , . X . * 9 , .   . * < * .     ",
"                                .                         o       X         X     o             ",
"          .                                               o o   o         X       o           . ",
"  . O +   . . O O O     . O = * .     + * O     . O O     . . O O o     O + + .   . * = O .     ",
". , H E O   * u |  .4 . * V *.o.3 . O v o.7     * B T #     , H G O   * c X.J < . = V *...,     ",
"  9 !.~.4   r z.G.!.k.< v G.Z.S.@.O + ,.].L . . < a.'.6   . r ~.l.: . u z./.~.f.= N S.Z.~.T .   ",
". 8 4.I.2 . _ U.,.,.].N ;.I.;.n.z.< O ;.I.P .   , 1.Y.w   . 9 Z.A.: O ] G.;.5.!.v n.G.;.M.e.-   ",
". , ] L.2 O :.L.N _ Q.;.M.L.v ;.'.i O ' I.P .   * ;.U.e .   < 4.a.- * 1.s.v >._.] V.e.v 3.s.< X ",
"  , ;.Z.1 O <.P.! ' R.;.D.C.v 1.'.i . _ I.P .   * >.H.w     8 4.u.- * 4.A.N ;.K.;.V.9.M 4.a.8   ",
". , :.Z.0 O _ D.;.>.G.N ,.L.' u.x., . ( W.H . . * :.J.e     9 M.A.= O >.A.] 4.A.v m.C.( u.k.=   ",
"  8 5.H.l . r 4.S.A.j.8 v A.Z.~.@.O O { _.o.O o , t.[.I   . 9 S.A.f . v ^.A.~.#.= ! A.C.z.Y O   ",
"  , [ *.g o + v 6.#.i . * N 6.| <   O B -.U O . = #.q.k   . 8 #.&.6   = V 0.O.8 . , ` 0.T =     ",
". . * * O     O * * .   . O * O     . + = + .   . + * O     . * * . X . O * O .     * = O .     ",
"                              .                                             .                   ",
"                                                                                                ",
"  . + + . .   . O O       O = + .   . , , * .   O * , O .   O = = .     O * O     . + * O       ",
". , } o.+     0 O.R O   . c *.P O . 9 $.0.o., O r $.w.Z O * v q.h.D   . p -.G . o + v o.w       ",
". r !.a.5   . v S.k.*   . [ ].@.O + #./.4.A.E 9 6.S.u.a.y r a.D.A.c.; O ^ ].g.. X + ;.~.P .     ",
". 8 4.L.5     u Z.p.+ o   ! H.@.O < Z.Z.~ N.l.~ L.4._ R.[ ' ~.:.] [.k O v H.w.. o O ] D.Y .     ",
"  < :.C.5     9 C.e.*     M F.o.O 8 F.4.u N.A.;.P.#.x T.2.2.L.! ! [.U . x F.w.. o . ) P.H .     ",
"  , >.A.2 o   8 t.e.*     v A.+.O r R.4.t N.A.;.D.[ c I.3.2.L.! N Q.Q . t L.-.O o . ) P.A .     ",
"  < 3.D.8   . 9 M.a., o . M G.&.+ , M.S.~ Z.0.M M.5._ I.` ' Y.:.;._.d . v Z.8.O o . _ I.S O o   ",
"  8 u.G.j   . u A.z.0   . ! /.g.* O ~ /.a.z.F < _ F.a.z.e 9 y.D.!.k.> . N H.k.>   . ] /.@.+     ",
". = | #.z     8 #...3   . c X.F + . < ` #.F + . 8 ) ` i O O r ) } 0 . . u $.J ;   O B %.P +     ",
". . * * .     O * + .   . O * O .   . * * O     . + * .     O * +     . + , O .   . = = O       ",
"% X X .   o                 o .         o . o o       o o         o   o $ & X   o o           . "
};
