/* XPM */
static char *result[] = {
/* columns rows colors chars-per-pixel */
"48 48 160 2 ",
"   c #010308",
".  c #000409",
"X  c #01040C",
"o  c #00050C",
"O  c #00040D",
"+  c #01050D",
"@  c #01060D",
"#  c #02060C",
"$  c #02060D",
"%  c #00050E",
"&  c #01050E",
"*  c #02050E",
"=  c #00060E",
"-  c #01060E",
";  c #00060F",
":  c #01060F",
">  c #01070F",
",  c #05090F",
"<  c #010710",
"1  c #010612",
"2  c #010712",
"3  c #020712",
"4  c #010811",
"5  c #020811",
"6  c #030811",
"7  c #020911",
"8  c #010912",
"9  c #010813",
"0  c #020912",
"q  c #030912",
"w  c #020A13",
"e  c #030A13",
"r  c #040810",
"t  c #040A13",
"y  c #060A13",
"u  c #030814",
"i  c #020914",
"p  c #020915",
"a  c #030915",
"s  c #030B14",
"d  c #030B15",
"f  c #040B14",
"g  c #050B14",
"h  c #040A16",
"j  c #050A16",
"k  c #040B17",
"l  c #050B17",
"z  c #040C15",
"x  c #050C15",
"c  c #060E15",
"v  c #050D16",
"b  c #040C17",
"n  c #050C17",
"m  c #040D17",
"M  c #060D16",
"N  c #070D16",
"B  c #070D17",
"V  c #060E16",
"C  c #060E17",
"Z  c #070E17",
"A  c #090D15",
"S  c #090E17",
"D  c #0A0E17",
"F  c #030A18",
"G  c #050C18",
"H  c #060D18",
"J  c #060D19",
"K  c #050E19",
"L  c #060E18",
"P  c #070F18",
"I  c #060E19",
"U  c #070E19",
"Y  c #070F19",
"T  c #060D1A",
"R  c #070E1A",
"E  c #060F1A",
"W  c #070F1A",
"Q  c #070F1B",
"!  c #080F18",
"~  c #090D1A",
"^  c #080F1A",
"/  c #080F1B",
"(  c #0C0F18",
")  c #080F1D",
"_  c #0A0F1C",
"`  c #081017",
"'  c #07101B",
"]  c #081019",
"[  c #09111A",
"{  c #08101B",
"}  c #09101B",
"|  c #09111B",
" . c #0A111A",
".. c #0A121B",
"X. c #0B121B",
"o. c #0E111A",
"O. c #0D121B",
"+. c #0C131B",
"@. c #0F131A",
"#. c #09101C",
"$. c #08111C",
"%. c #0A111D",
"&. c #08121D",
"*. c #09121D",
"=. c #0B131C",
"-. c #0A121D",
";. c #09111E",
":. c #0B121E",
">. c #0A131E",
",. c #0D121D",
"<. c #0F121D",
"1. c #0C141D",
"2. c #0F161E",
"3. c #14161F",
"4. c #0C1420",
"5. c #0C1520",
"6. c #111720",
"7. c #101821",
"8. c #121821",
"9. c #111922",
"0. c #111923",
"q. c #131B24",
"w. c #161E27",
"e. c #171E27",
"r. c #1B212A",
"t. c #1B222E",
"y. c #1E262F",
"u. c #1F2833",
"i. c #24272C",
"p. c #222A33",
"a. c #252A31",
"s. c #212A37",
"d. c #242C35",
"f. c #272C34",
"g. c #282C31",
"h. c #272F38",
"j. c #323841",
"k. c #323A43",
"l. c #343A43",
"z. c #363E47",
"x. c #49505C",
"c. c #4B535C",
"v. c #5A6068",
"b. c #5E646B",
"n. c #5E656C",
"m. c #5E666F",
"M. c #5F676F",
"N. c #626971",
"B. c #676F78",
"V. c #777E86",
"C. c #7E848F",
"Z. c #828A8F",
"A. c #8F96A0",
"S. c #9CA4AD",
"D. c #A9B0B5",
"F. c #BAC0C4",
"G. c #D4D4DB",
"H. c #F3F5FF",
"J. c #F8FDFF",
"K. c #FBFEFF",
/* pixels */
"C 8.C C ] C C z C C #.C C C C C C C C C C C C J C C C C C C v & P w C 2 C C C C C C C C ] C 0 C ",
"C C C [ C C C C C C h / C v C C ] ] C ] C C C $.C C C C C v J 7 ] C ' C ] C C C C C ] C C P O.C ",
"C #.C C i.C C ] C C #./ C C & C Q P C $.k C C C C C C C C C ] ' C C { [ C C R C B C C C m C / J ",
"C P P C C C C C C C ` J C C C C J ] / ' / C C C C C C C C 6 C ] C C C ] C C ] C C P C C Q C J C ",
"C C z C C z C C [ C C 1.C C ] J C C C %.P C C C C C ] C C ..P C C C C [ C C C C C v C z C C C C ",
"C C C C P ' C C H.C [ C ] ] C l C C P C C C C C C ] C C C C C P C ] C C C C C C ) v O C C C C C ",
"C C C ] ] ' P P / v A C z C C C C P P C R C C w a C C P C C l.C J C C C C C C C U C C C / P C C ",
"C C C C ] / C ] P C y C C ] C C C ] C ] C C C < ..] C v C C u C P r.C C v C C C C C C P C C C C ",
"C C C C C C C C C / ' C C 8 C 0 $.P C C C ] C v 9.] ] P C z ] v 0 N.x C C C C % J C C C C C C C ",
"C C C C C C C J L C J ] C C ] C 5.J P C C C C C 0 C C C C C J C C ] N s P C C C / / F.C C C C [ ",
"C C [ ] C C P C d.C ] C C [ P ] C K P ] C C t C P C [ C C > / / C ..C ] C ] C v ! C j.C ..z C P ",
"T C C C J *.C P C C C C P P K S.C D / ] C C C C v P 7.C C C C C 0 C d ] C ] ] C C C C C C J C C ",
"/ C C C K $.C C ..C C C C v ' P C C =.x./ >.v C C w ] C C C [ P C P C / C =...z C C C C C / C ,.",
"$ C P C z W E 6.C C C C C C C C 2.z / C ' %.W C v C C C s P [ C [ ] C P P C g ] C C C C C P C C ",
"C C w v v J C C ..C Z C - C C C C C C ] C R C C C C C z C C C C C C v C C 7.C C C C ] C C C ] P ",
"C C C C C R C w C C ..C ' J [ C ] C [ P = c C [ C C P k.C C C z C C z P C #.C 1.r C P C C C C C ",
"C C C C C C C #.C C C P s C C C = C C ] %.C C C ] v P C C C C C C C C ] R #.C C C [ C C C C C C ",
"C C C C ] C C 4 #.C C ] C C C $.C C ] C C C C C C C + P C 1.C P v C C v ] J C C P C C C C C C C ",
"C v C C C C o.J C C Y J v C ^ 5.C C C C C C C P v C C C s C ] c C C C C 5 P C C C ] C P C C C C ",
"C C C C C C C H C C / ' C C J :.0.C K ' C C C f C J C v M.C C J z C C C C C J C C ] C C C g C C ",
"C C C C C C P C C z P R P C C J x C c.%.C C s C s l C C C C C R C C C J C C 3 #.C J C C C C C C ",
"C n -.C C C C C ] C C C v C C C P C M k C C v C C C C C C C V.~ C [ C C C w / ' C *.C X.C ..C C ",
"C ' ' J C C C 0 C C C v C C f.C P C C R C C C C C C P ] P C C C C ] C C C ] C C C #.C G.C C v C ",
"C C R ' C C P C C C C C 5 h.n.C C C C C C C C C C C C C C C v e C C P C ' J C C C #.C ..C C C C ",
"C C ' _ C R C C C y.P v C v C . C C C C C C C ] C C C C C s v C C v C C C C g.C C C C C C C C C ",
"C C C / J R v C C C C C P v ] P C C C C ] C C ] %.C C C C C C C C C } ] s C C , C C C v C C C r ",
"C C C # N C C C C C C C C C C C s P P C q C C #.u.v ] C C C C C C C J C C C ] C F o C C C C C C ",
"C C C v C C C w C C z C  .C P P v C ] e P C ] / s.G / $.C H C C C q...C v C C 3.C v C C C C C C ",
"C C C a.C C C C C z C C C ] C C v C * C C C v z [ C J R C ' C C t C C C C C C C P C C C C C C C ",
"C t C C C C C C C C C C C ] P C ] P C C C C ] ] C C C C C K C C v C @ C C C C [ C P v P C C C v ",
"C C | C ] P C C C C P C J.v C C ] C k z C C C C C C P J C C C C C ] C C C C C C P [ C C ] C C C ",
"C C ! C C v C C v C C ] C C C C Z.C e./ b.d.C C v / p c C [ C C C C C P C C <.w.C 8 ] C C C C C ",
"C C C ] C C C ] C s C ] v z C C P C C ' C 0 C C C ; R C C C w P ] C C C C w C C 4 C C [ C C C C ",
"C C C C ' C / z P C C P v C C C C C C R C 5 ] C P C C =.C ..s v C C ] C C C C C C t C C j 4.C C ",
"C C [ C C C ' P C v C [ C ] C C C C   [ C ] v C C ] C C ] C C C C C P ] R m.C ] C C C C C ' C W ",
"C C z C C C C P ] $./ C C P + C ] C C C z 1 C C C v ] C z C C C C C C C #.C P q C C C C C v C C ",
"C C P C ] C P C ] i C C C ] P C C C C C C ] ( v C C C C C C C C C t.C C C C C X C P P C C C C C ",
"C C C C [ C P C P C C v C ..w [ / ..P C C z C C C C C C P v C v C R b C ..C C C ] C C C C C C C ",
"C C C C C C #.C v C C C P C C A.P C C C C P P ] p.C C ] C ] #.v C #.' v J C C ] P C 4 C C C C C ",
"M C C C C C / v P z.C C [ C C R C C C C C +.C C C q C C C C %.C C v C C P [ C C C C C C C v C C ",
"C C C J C C C C C C ] C v / P P P [ C C C B.] C C C v ] C ] ' C v ] ] C C C C [ v P C P C C P C ",
"C C C./ [ C ] I w C P C C J C z C s C C P C C C C C ] C f P C C C & C C C ] C [ ] C C C C C C C ",
"C ' Q v v ) ' E / C C P D.C C C ; P / C C C C C ] C v C C C C v v.C C C C C C v v ] C C C C C C ",
"/ C C C C s P J / k C Z C C C C C C 9 J P C e C C C C C ] q C C C C C J C C [ C C C C C C C C C ",
"C C C M C C P V #.J ] C C P ] C P C P C C C v C 1.C C C C C C C C C C C C C @.f ] C v C P P C C ",
"/ C C P C C Y E &.C C z C C C ] C ] C R P v C C P C z C P C C C C C C C C C W ;.] v C C C C C C ",
"K.C C C C C / ^ / C C C C C C C C C C C =.C C C C P C C C C C P C C C P C C ..' C C C C q C C C ",
"H C C C : / C C C C C C C C S C C C Z C e C C C C / [ C C C C C C C C C C C ' C / ] C C C C C C "
};
