/* XPM */
static char *result[] = {
/* columns rows colors chars-per-pixel */
"48 48 103 2 ",
"   c #FFB209",
".  c #FFB309",
"X  c #FFB10A",
"o  c #FFB20A",
"O  c #FFB30A",
"+  c #FFB30B",
"@  c #FFB509",
"#  c #FFB609",
"$  c #FDB50B",
"%  c #FFB40A",
"&  c #FFB50A",
"*  c #FFB40B",
"=  c #FFB50B",
"-  c #FDB60A",
";  c #FDB70A",
":  c #FFB70A",
">  c #FFB60B",
",  c #FFB70B",
"<  c #FFB10C",
"1  c #FFB20C",
"2  c #FFB30C",
"3  c #FFB908",
"4  c #FFBB08",
"5  c #FFBB09",
"6  c #FDB90A",
"7  c #FFB80A",
"8  c #FFB90A",
"9  c #FFB80B",
"0  c #FFB90B",
"q  c #FDBB0A",
"w  c #FFBA0A",
"e  c #FFBB0A",
"r  c #FFBC08",
"t  c #FFBD08",
"y  c #FFBD09",
"u  c #FFBE09",
"i  c #FFBF09",
"p  c #FDBC0A",
"a  c #FFBC0A",
"s  c #FFBD0A",
"d  c #FFC307",
"f  c #FFC507",
"g  c #FFC607",
"h  c #FEC707",
"j  c #FFC707",
"k  c #FFC905",
"l  c #FFC807",
"z  c #FEC907",
"x  c #FFC907",
"c  c #FFCB06",
"v  c #FFCA07",
"b  c #FFCB07",
"n  c #FFCD06",
"m  c #FFCC07",
"M  c #FFCE06",
"N  c #FECF06",
"B  c #FFCF06",
"V  c #FFC009",
"C  c #FFC109",
"Z  c #FFC209",
"A  c #FFC309",
"S  c #FFC408",
"D  c #FFC508",
"F  c #FFC409",
"G  c #FFC509",
"H  c #FFC608",
"J  c #FFC708",
"K  c #FFC609",
"L  c #FFD006",
"P  c #FFD106",
"I  c #FFD206",
"U  c #FFD306",
"Y  c #FFD605",
"T  c #FFD705",
"R  c #FED506",
"E  c #FFD506",
"W  c #FFD803",
"Q  c #FFD903",
"!  c #FFDA03",
"~  c #FFDC03",
"^  c #FEDD03",
"/  c #FFDD03",
"(  c #FFDE03",
")  c #FFDF03",
"_  c #FFD804",
"`  c #FED805",
"'  c #FFD905",
"]  c #FFDB05",
"[  c #FFDC05",
"{  c #FFDD05",
"}  c #FFE003",
"|  c #FFE103",
" . c #FFE203",
".. c #FFE303",
"X. c #FFE402",
"o. c #FFE502",
"O. c #FFE403",
"+. c #FFE503",
"@. c #FFE602",
"#. c #FFE702",
"$. c #FFE603",
"%. c white",
"&. c None",
/* pixels */
"&.&.&.&.&.&.&.&.&.&.&.&.&.&.&.&.&.&.&.&.&.&.&.&.&.&.&.&.&.&.&.&.&.&.&.&.&.&.&.&.&.&.&.&.&.&.&.&.",
"&.&.&.&.&.&.&.&.&.&.&.&.&.&.&.&.&.&.&.&.&.&.&.&.&.&.&.&.&.&.&.&.&.&.&.&.&.&.&.&.&.&.&.&.&.&.&.&.",
"&.&.&.&.&.&.&.&.&.&.&.&.&.&.&.&.&.&.&.&.&.&.&.&.&.&.&.&.&.&.&.&.&.&.&.&.&.&.&.&.&.&.&.&.&.&.&.&.",
"&.&.&.&.&.&.&.&.&.&.&.&.&.&.&.&.&.&.&.&.&.&.&.&.&.&.&.&.&.&.&.&.&.&.&.&.&.&.&.&.&.&.&.&.&.&.&.&.",
"&.&.&.&.&.&.&.&.&.&.&.&.&.&.&.&.&.&.&.&.&.&.&.&.&.&.&.&.&.&.&.&.&.&.&.&.&.&.&.&.&.&.&.&.&.&.&.&.",
"&.&.&.&.&.&.&.&.&.&.&.&.&.&.&.&.&.&.&.&.&.&.&.&.&.&.&.&.&.&.&.&.&.&.&.&.&.&.&.&.&.&.&.&.&.&.&.&.",
"&.&.&.&.&.&.&.&.&.&.&.&.&.&.&.&.&.&.&.&.&.&.&.&.&.&.&.&.&.&.&.&.&.&.&.&.&.&.&.&.&.&.&.&.&.&.&.&.",
"&.&.&.&.&.&.&.&.&.&.&.&.&.&.&.&.&.&.&.&.&.&.&.&.&.&.&.&.&.&.&.&.&.&.&.&.&.&.&.&.&.&.&.&.&.&.&.&.",
"&.&.&.&.&.&.&.&.&.&.&.&.&.&.&.&.&.&.&.&.&.&.&.&.&.&.&.&.&.&.&.&.&.&.&.&.&.&.&.&.&.&.&.&.&.&.&.&.",
"&.&.&.&.&.&.&.&.&.&.&.&.&.&.&.&.&.&.&.&.&.&.&.&.&.&.&.&.&.&.&.&.&.&.&.&.&.&.&.&.&.&.&.&.&.&.&.&.",
"&.&.&.&.&.&.&.&.&.&.&.&.&.&.&.&.&.&.&.&.&.&.&.&.&.&.&.&.&.&.&.&.&.&.&.&.&.&.&.&.&.&.&.&.&.&.&.&.",
"&.&.&.&.&.&.&.&.&.&.&.&.&.&.&.&.&.&.&.&.&.&.&.&.&.&.&.&.&.&.&.&.&.&.&.&.&.&.&.&.&.&.&.&.&.&.&.&.",
"&.&.&.&.&.&.&.&.&.&.&.&.&.&.&.&.&.&.&.&.&.&.&.&.&.&.&.&.&.&.&.&.&.&.&.&.&.&.&.&.&.&.&.&.&.&.&.&.",
"&.&.&.&.&.&.&.&.&.&.&.&.&.&.&.&.&.&.&.&.1 % & @ @ & % 1 &.&.&.&.&.&.&.&.&.&.&.&.&.&.&.&.&.&.&.&.",
"&.&.&.&.&.&.&.&.&.&.&.&.&.&.&.&.&.&.X @ , : 8 w w 8 : = # 2 &.&.&.&.&.&.&.&.&.&.&.&.&.&.&.&.&.&.",
"&.&.&.&.&.&.&.&.&.&.&.&.&.&.&.&.&.% = 7 a y i V V i u a 8 , o &.&.&.&.&.&.&.&.&.&.&.&.&.&.&.&.&.",
"&.&.&.&.&.&.&.&.&.&.&.&.&.&.&.&.. 0 r i A G D l l H G C u 4 = & &.&.&.&.&.&.&.&.&.&.&.&.&.&.&.&.",
"&.&.&.&.&.&.&.&.&.&.&.&.&.&.&.% , a V G b n B U U B M x F C a = % &.&.&.&.&.&.&.&.&.&.&.&.&.&.&.",
"&.&.&.&.&.&.&.&.&.&.&.&.&.&.% = p Z l c U T ~ [ [ ! Y P m H i r = O &.&.&.&.&.&.&.&.&.&.&.&.&.&.",
"&.&.&.&.&.&.&.&.&.&.&.&.&.&.@ e V g M E [ | O.%.%...} ! I n K u e # &.&.&.&.&.&.&.&.&.&.&.&.&.&.",
"&.&.&.&.&.&.&.&.&.&.&.&.&.% > a f b R / O.%.%.%.%.%.%...] I v d a 9 o &.&.&.&.&.&.&.&.&.&.&.&.&.",
"&.&.&.&.&.&.&.&.&.&.&.&.&.% 7 i j B W  .%.%.%.%.%.%.%.%.| _ B f y - o &.&.&.&.&.&.&.&.&.&.&.&.&.",
"&.&.&.&.&.&.&.&.&.&.&.&.&.@ s C x U / $.%.%.%.%.%.%.%.%.+.[ I h u e . &.&.&.&.&.&.&.&.&.&.&.&.&.",
"&.&.&.&.&.&.&.&.&.&.&.&.&.# a V b U ( %.%.%.%.%.%.%.%.%.#.^ U v V a # &.&.&.&.&.&.&.&.&.&.&.&.&.",
"&.&.&.&.&.&.&.&.&.&.&.&.&.# w Z b E / %.%.%.%.%.%.%.%.%.@./ U j V w # &.&.&.&.&.&.&.&.&.&.&.&.&.",
"&.&.&.&.&.&.&.&.&.&.&.&.&.@ 8 C l I { +.%.%.%.%.%.%.%.%.O.] L j V 8 . &.&.&.&.&.&.&.&.&.&.&.&.&.",
"&.&.&.&.&.&.&.&.&.&.&.&.&.% ; y f N T | %.%.%.%.%.%.%.%.) T n G y ; % &.&.&.&.&.&.&.&.&.&.&.&.&.",
"&.&.&.&.&.&.&.&.&.&.&.&.&.o 9 a A x P ! } %.%.%.%.%.%.} ! L k C q = 1 &.&.&.&.&.&.&.&.&.&.&.&.&.",
"&.&.&.&.&.&.&.&.&.&.&.&.&.&.@ 8 u F b I Q )  .o.X. .( ' I m A y 6 # &.&.&.&.&.&.&.&.&.&.&.&.&.&.",
"&.&.&.&.&.&.&.&.&.&.&.&.&.&.X $ 4 C H b P E ' ] ] ` E L z S i 3 = 2 &.&.&.&.&.&.&.&.&.&.&.&.&.&.",
"&.&.&.&.&.&.&.&.&.&.&.&.&.&.&.% , t i A j n M L L M b j C i r = % &.&.&.&.&.&.&.&.&.&.&.&.&.&.&.",
"&.&.&.&.&.&.&.&.&.&.&.&.&.&.&.&.O = 3 y V C D J D H F V y 4 > = &.&.&.&.&.&.&.&.&.&.&.&.&.&.&.&.",
"&.&.&.&.&.&.&.&.&.&.&.&.&.&.&.&.&.% = 8 t 5 u u u u p r : = o &.&.&.&.&.&.&.&.&.&.&.&.&.&.&.&.&.",
"&.&.&.&.&.&.&.&.&.&.&.&.&.&.&.&.&.&.2   = = e 7 7 8 = = * < &.&.&.&.&.&.&.&.&.&.&.&.&.&.&.&.&.&.",
"&.&.&.&.&.&.&.&.&.&.&.&.&.&.&.&.&.&.&.&.< 2 +   * + 2 < &.&.&.&.&.&.&.&.&.&.&.&.&.&.&.&.&.&.&.&.",
"&.&.&.&.&.&.&.&.&.&.&.&.&.&.&.&.&.&.&.&.&.&.&.&.&.&.&.&.&.&.&.&.&.&.&.&.&.&.&.&.&.&.&.&.&.&.&.&.",
"&.&.&.&.&.&.&.&.&.&.&.&.&.&.&.&.&.&.&.&.&.&.&.&.&.&.&.&.&.&.&.&.&.&.&.&.&.&.&.&.&.&.&.&.&.&.&.&.",
"&.&.&.&.&.&.&.&.&.&.&.&.&.&.&.&.&.&.&.&.&.&.&.&.&.&.&.&.&.&.&.&.&.&.&.&.&.&.&.&.&.&.&.&.&.&.&.&.",
"&.&.&.&.&.&.&.&.&.&.&.&.&.&.&.&.&.&.&.&.&.&.&.&.&.&.&.&.&.&.&.&.&.&.&.&.&.&.&.&.&.&.&.&.&.&.&.&.",
"&.&.&.&.&.&.&.&.&.&.&.&.&.&.&.&.&.&.&.&.&.&.&.&.&.&.&.&.&.&.&.&.&.&.&.&.&.&.&.&.&.&.&.&.&.&.&.&.",
"&.&.&.&.&.&.&.&.&.&.&.&.&.&.&.&.&.&.&.&.&.&.&.&.&.&.&.&.&.&.&.&.&.&.&.&.&.&.&.&.&.&.&.&.&.&.&.&.",
"&.&.&.&.&.&.&.&.&.&.&.&.&.&.&.&.&.&.&.&.&.&.&.&.&.&.&.&.&.&.&.&.&.&.&.&.&.&.&.&.&.&.&.&.&.&.&.&.",
"&.&.&.&.&.&.&.&.&.&.&.&.&.&.&.&.&.&.&.&.&.&.&.&.&.&.&.&.&.&.&.&.&.&.&.&.&.&.&.&.&.&.&.&.&.&.&.&.",
"&.&.&.&.&.&.&.&.&.&.&.&.&.&.&.&.&.&.&.&.&.&.&.&.&.&.&.&.&.&.&.&.&.&.&.&.&.&.&.&.&.&.&.&.&.&.&.&.",
"&.&.&.&.&.&.&.&.&.&.&.&.&.&.&.&.&.&.&.&.&.&.&.&.&.&.&.&.&.&.&.&.&.&.&.&.&.&.&.&.&.&.&.&.&.&.&.&.",
"&.&.&.&.&.&.&.&.&.&.&.&.&.&.&.&.&.&.&.&.&.&.&.&.&.&.&.&.&.&.&.&.&.&.&.&.&.&.&.&.&.&.&.&.&.&.&.&.",
"&.&.&.&.&.&.&.&.&.&.&.&.&.&.&.&.&.&.&.&.&.&.&.&.&.&.&.&.&.&.&.&.&.&.&.&.&.&.&.&.&.&.&.&.&.&.&.&.",
"&.&.&.&.&.&.&.&.&.&.&.&.&.&.&.&.&.&.&.&.&.&.&.&.&.&.&.&.&.&.&.&.&.&.&.&.&.&.&.&.&.&.&.&.&.&.&.&."
};
